<svg width="342" height="363" viewBox="0 0 342 363" fill="none" xmlns="http://www.w3.org/2000/svg">
<g clip-path="url(#clip0_20_912)">
<path d="M439.841 -74.6518L196.076 -215.313C188.336 -219.744 179.627 -222 170.918 -222C162.208 -222 153.582 -219.744 145.759 -215.313L-97.8412 -74.6518C-113.404 -65.7085 -123 -49.0995 -123 -31.1201V250.12C-123 268.099 -113.404 284.616 -97.8412 293.652L145.841 434.313C153.582 438.826 162.291 441 171 441C179.709 441 188.336 438.743 196.159 434.313L439.841 293.652C455.404 284.708 465 268.099 465 250.12V-31.1201C465 -49.0995 455.404 -65.6157 439.841 -74.6518ZM423.794 250.12C423.794 253.345 422.021 256.405 419.197 258.023L382.175 279.392L284.539 11.8448C282.766 7.01257 275.912 7.01257 274.14 11.8448L242.044 99.8664C241.158 102.288 241.158 104.946 242.044 107.439L318.232 316.309L292.908 330.919L230.511 159.914C228.738 155.082 221.884 155.082 220.112 159.914L188.016 247.946C187.13 250.367 187.13 253.026 188.016 255.519L228.975 367.826L175.514 398.684C174.144 399.488 172.536 399.89 170.918 399.89C169.299 399.89 167.774 399.488 166.321 398.684L113.375 368.135L263.74 -43.8551C265.028 -47.4819 262.369 -51.2735 258.494 -51.2735H196.726C192.129 -51.2735 187.934 -48.3679 186.326 -44.0199L49.4216 331.228L24.1082 316.618L155.602 -43.8551C156.973 -47.4819 154.313 -51.2735 150.438 -51.2735L88.6697 -51.2632C84.0729 -51.2632 79.878 -48.3576 78.2702 -44.0096L-39.8452 279.722L-77.2793 258.116C-80.1033 256.508 -81.8761 253.438 -81.8761 250.213V-31.1201C-81.8761 -34.3451 -80.1033 -37.4052 -77.2793 -39.0228L166.403 -179.684C167.774 -180.488 169.382 -180.89 170.918 -180.89C172.453 -180.89 174.061 -180.488 175.514 -179.684L419.197 -39.0228C422.021 -37.4155 423.794 -34.3451 423.794 -31.1201V250.12Z" fill="url(#paint0_linear_20_912)" fill-opacity="0.8"/>
</g>
<defs>
<linearGradient id="paint0_linear_20_912" x1="179.302" y1="370.208" x2="67.8127" y2="-561.418" gradientUnits="userSpaceOnUse">
<stop offset="0.181943" stop-color="white" stop-opacity="0"/>
<stop offset="1" stop-color="white"/>
</linearGradient>
<clipPath id="clip0_20_912">
<rect width="342" height="363" fill="white"/>
</clipPath>
</defs>
</svg>
