<svg width="16" height="16" viewBox="0 0 16 16" fill="none" xmlns="http://www.w3.org/2000/svg">
<g clip-path="url(#clip0_20_918)">
<path d="M10.6668 5.33331V3.46665C10.6668 2.71991 10.6668 2.34654 10.5215 2.06133C10.3937 1.81044 10.1897 1.60647 9.93883 1.47864C9.65363 1.33331 9.28023 1.33331 8.5335 1.33331H3.46683C2.7201 1.33331 2.34672 1.33331 2.06151 1.47864C1.81062 1.60647 1.60665 1.81044 1.47882 2.06133C1.3335 2.34654 1.3335 2.71991 1.3335 3.46665V8.53331C1.3335 9.28005 1.3335 9.65345 1.47882 9.93865C1.60665 10.1895 1.81062 10.3935 2.06151 10.5213C2.34672 10.6666 2.7201 10.6666 3.46683 10.6666H5.3335M7.46683 14.6666H12.5335C13.2802 14.6666 13.6536 14.6666 13.9388 14.5213C14.1897 14.3935 14.3937 14.1895 14.5215 13.9386C14.6668 13.6534 14.6668 13.28 14.6668 12.5333V7.46665C14.6668 6.71991 14.6668 6.34654 14.5215 6.06133C14.3937 5.81044 14.1897 5.60647 13.9388 5.47864C13.6536 5.33331 13.2802 5.33331 12.5335 5.33331H7.46683C6.7201 5.33331 6.34672 5.33331 6.06151 5.47864C5.81062 5.60647 5.60665 5.81044 5.47882 6.06133C5.3335 6.34654 5.3335 6.71991 5.3335 7.46665V12.5333C5.3335 13.28 5.3335 13.6534 5.47882 13.9386C5.60665 14.1895 5.81062 14.3935 6.06151 14.5213C6.34672 14.6666 6.7201 14.6666 7.46683 14.6666Z" stroke="#CAF2BF" stroke-width="1.5" stroke-linecap="round" stroke-linejoin="round"/>
</g>
<defs>
<clipPath id="clip0_20_918">
<rect width="16" height="16" fill="white"/>
</clipPath>
</defs>
</svg>
