<svg width="145" height="15" viewBox="0 0 145 15" fill="none" xmlns="http://www.w3.org/2000/svg">
<path d="M9.37132 0.943359C9.83955 0.943359 10.2462 1.03762 10.5696 1.23582C10.8931 1.43401 11.2153 1.80986 11.5278 2.37302L17.715 13.6181C17.7777 13.7438 17.7874 13.8477 17.7572 13.9311C17.7258 14.0145 17.6317 14.0568 17.4869 14.0568H15.112C14.9032 14.0568 14.7584 13.9734 14.6848 13.8163L13.3621 11.4066H4.58043L3.28918 13.8163C3.20591 13.9831 3.05989 14.0568 2.86198 14.0568H0.435155C0.26862 14.0568 0.17449 14.0145 0.143114 13.9311C0.111738 13.8477 0.122599 13.7438 0.185352 13.6181L6.3206 2.37302C6.63315 1.80986 6.93484 1.43401 7.23774 1.23582C7.53944 1.03762 7.88337 0.943359 8.27919 0.943359H9.37253H9.37132ZM5.73531 9.21556H12.1722L9.20358 3.72896C9.15169 3.64557 9.08894 3.5936 8.99481 3.5936H8.88016C8.7969 3.5936 8.72449 3.6359 8.67139 3.72896L5.7341 9.21556H5.73531Z" fill="white"/>
<path d="M31.3093 0.943359C32.7465 0.943359 33.7675 1.26724 34.3926 1.91379C35.0177 2.56034 35.3302 3.51989 35.3302 4.79244V5.85592C35.3302 6.93028 35.1118 7.77502 34.6737 8.40103C34.2357 9.02703 33.5273 9.42342 32.5378 9.60107L35.7357 13.565C35.7985 13.6278 35.819 13.7209 35.7876 13.8465C35.7671 13.9722 35.6621 14.0339 35.4859 14.0339H33.0796C32.9131 14.0339 32.8093 14.0133 32.7465 13.9819C32.6838 13.9396 32.621 13.878 32.5595 13.7946L29.6017 9.90319H23.5606V13.6278C23.5606 13.8985 23.4254 14.0351 23.1539 14.0351H21.1325C20.8405 14.0351 20.7053 13.8997 20.7053 13.6278V1.50652C20.7053 1.13068 20.8924 0.943359 21.2677 0.943359H31.3093ZM23.5702 7.63H30.7264C31.3624 7.63 31.8101 7.49465 32.0707 7.22274C32.3314 6.95203 32.4666 6.53389 32.4666 5.97073V5.18883C32.4666 4.62567 32.3314 4.20873 32.0707 3.93682C31.8101 3.66612 31.3624 3.52955 30.7264 3.52955H23.8092C23.6426 3.52955 23.569 3.60206 23.569 3.75917V7.62879L23.5702 7.63Z" fill="white"/>
<path d="M50.9653 0.943359C52.2468 0.943359 53.1628 1.2044 53.7046 1.71559C54.2465 2.22679 54.5168 2.99902 54.5168 4.03108V4.92779C54.5168 5.97073 54.121 6.7635 53.3185 7.30612C54.1729 7.80644 54.6097 8.6101 54.6097 9.71588V10.8011C54.6097 11.3014 54.5578 11.7498 54.4432 12.1474C54.3285 12.5438 54.1511 12.8882 53.8917 13.1698C53.631 13.4514 53.298 13.6701 52.8708 13.8163C52.4436 13.9626 51.9234 14.0459 51.2983 14.0459H40.1936C39.8183 14.0459 39.6312 13.8586 39.6312 13.4828V1.50773C39.6312 1.13189 39.8183 0.944567 40.1936 0.944567H50.9641L50.9653 0.943359ZM42.4961 6.38887H50.1628C50.7879 6.38887 51.2042 6.29461 51.4335 6.10729C51.6628 5.91997 51.7666 5.64806 51.7666 5.28309V4.64621C51.7666 4.2607 51.6628 3.97912 51.4431 3.79059C51.2247 3.61294 50.8699 3.51989 50.3908 3.51989H42.7447C42.5782 3.51989 42.5046 3.60327 42.5046 3.76038V6.38887H42.4937H42.4961ZM42.4961 8.43366V11.2193C42.4961 11.386 42.5794 11.4597 42.7363 11.4597H50.4029C50.9025 11.4597 51.2573 11.3655 51.4649 11.189C51.6724 11.0126 51.7883 10.7201 51.7883 10.3238V9.61436C51.7883 9.22885 51.6736 8.93639 51.4443 8.7382C51.2151 8.54 50.7879 8.43607 50.1628 8.43607H42.4961V8.43366Z" fill="white"/>
<path d="M61.58 0.943359C61.8503 0.943359 61.9867 1.07871 61.9867 1.35062V13.629C61.9867 13.8997 61.8515 14.0363 61.58 14.0363H59.5587C59.2666 14.0363 59.1315 13.9009 59.1315 13.629V1.3615C59.1315 1.0908 59.2775 0.954235 59.5587 0.954235L61.58 0.943359Z" fill="white"/>
<path d="M81.1635 0.943359C81.4556 0.943359 81.5907 1.07871 81.5907 1.35062V3.18634C81.5907 3.4788 81.4447 3.61415 81.1635 3.61415H75.2986V13.629C75.2986 13.8997 75.1634 14.0363 74.8919 14.0363H72.85C72.5797 14.0363 72.4434 13.9009 72.4434 13.629V3.61415H66.5784C66.2864 3.61415 66.1512 3.46792 66.1512 3.18634V1.35062C66.1512 1.07992 66.2973 0.943359 66.5784 0.943359H81.1623H81.1635Z" fill="white"/>
<path d="M95.9441 0.943359C97.3814 0.943359 98.4023 1.26724 99.0275 1.91379C99.6526 2.56034 99.9651 3.51989 99.9651 4.79244V5.85592C99.9651 6.93028 99.7467 7.77502 99.3086 8.40103C98.8706 9.02703 98.1622 9.42342 97.1726 9.60107L100.371 13.565C100.433 13.6278 100.454 13.7209 100.422 13.8465C100.402 13.9722 100.297 14.0339 100.121 14.0339H97.7145C97.5479 14.0339 97.4442 14.0133 97.3814 13.9819C97.3187 13.9396 97.2559 13.878 97.1944 13.7946L94.2366 9.90319H88.1954V13.6278C88.1954 13.8985 88.0603 14.0351 87.7888 14.0351H85.7674C85.4754 14.0351 85.3402 13.8997 85.3402 13.6278V1.50652C85.3402 1.13068 85.5273 0.943359 85.9026 0.943359H95.9441ZM88.2148 7.63H95.3709C96.0069 7.63 96.4546 7.49465 96.7153 7.22274C96.9759 6.95203 97.1111 6.53389 97.1111 5.97073V5.18883C97.1111 4.62567 96.9759 4.20873 96.7153 3.93682C96.4546 3.66612 96.0069 3.52955 95.3709 3.52955H88.4537C88.2872 3.52955 88.2135 3.60206 88.2135 3.75917V7.62879L88.2148 7.63Z" fill="white"/>
<path d="M106.455 0.943359C106.725 0.943359 106.862 1.07871 106.862 1.35062V8.81917C106.862 9.31949 106.904 9.73763 106.987 10.0603C107.071 10.3938 107.206 10.6549 107.394 10.8422C107.581 11.0404 107.832 11.1757 108.154 11.2495C108.478 11.3329 108.874 11.3752 109.362 11.3752H114.539C115.029 11.3752 115.425 11.3329 115.747 11.2495C116.071 11.1661 116.321 11.0307 116.508 10.8422C116.695 10.644 116.831 10.383 116.903 10.0603C116.976 9.72675 117.018 9.31949 117.018 8.81917V1.35062C117.018 1.07992 117.153 0.943359 117.425 0.943359H119.467C119.737 0.943359 119.873 1.07871 119.873 1.35062V9.10075C119.873 9.99746 119.779 10.7588 119.592 11.3957C119.405 12.0217 119.102 12.5329 118.686 12.9293C118.269 13.3257 117.728 13.6073 117.06 13.7849C116.394 13.9626 115.592 14.0459 114.643 14.0459H109.257C108.31 14.0459 107.507 13.9626 106.851 13.7849C106.194 13.6073 105.653 13.3257 105.236 12.9293C104.82 12.5329 104.517 12.0217 104.319 11.3957C104.121 10.7697 104.027 9.99746 104.027 9.10075V1.35062C104.027 1.07992 104.173 0.943359 104.454 0.943359H106.454H106.455Z" fill="white"/>
<path d="M127.903 0.943359C128.173 0.943359 128.414 0.963903 128.611 0.995324C128.809 1.03762 128.987 1.09926 129.133 1.21406C129.279 1.318 129.414 1.46422 129.539 1.64187C129.654 1.81952 129.78 2.05881 129.904 2.36214L133.79 11.3437C133.842 11.4585 133.925 11.5105 134.05 11.5105H134.28C134.405 11.5105 134.488 11.4585 134.54 11.3437L138.426 2.36214C138.552 2.06002 138.676 1.81952 138.791 1.64187C138.905 1.46422 139.04 1.318 139.197 1.21406C139.343 1.11013 139.521 1.03641 139.708 0.995324C139.906 0.953027 140.135 0.943359 140.405 0.943359H142.405C143.051 0.943359 143.489 1.08959 143.718 1.38205C143.947 1.6745 144.051 2.17482 144.051 2.88421V13.629C144.051 13.8997 143.905 14.0363 143.624 14.0363H141.717C141.447 14.0363 141.31 13.9009 141.31 13.629V3.85464C141.31 3.72896 141.258 3.66732 141.164 3.66732H140.998C140.872 3.66732 140.789 3.71929 140.758 3.81355L136.987 12.2006C136.84 12.5341 136.685 12.8266 136.528 13.0562C136.372 13.2858 136.205 13.4731 136.028 13.6302C135.851 13.7764 135.643 13.8913 135.414 13.9541C135.185 14.0169 134.914 14.0484 134.602 14.0484H133.706C133.394 14.0484 133.124 14.0169 132.894 13.9541C132.665 13.8913 132.456 13.7873 132.28 13.6302C132.103 13.484 131.926 13.2858 131.78 13.0562C131.625 12.8266 131.468 12.545 131.322 12.2006L127.551 3.81355C127.508 3.70962 127.436 3.66732 127.311 3.66732H127.144C127.04 3.66732 126.998 3.73016 126.998 3.85464V13.629C126.998 13.8997 126.863 14.0363 126.591 14.0363H124.685C124.393 14.0363 124.257 13.9009 124.257 13.629V2.88421C124.257 2.17482 124.372 1.6745 124.591 1.38205C124.82 1.08959 125.257 0.943359 125.913 0.943359H127.903Z" fill="white"/>
</svg>
