<svg width="120" height="120" viewBox="0 0 120 120" fill="none" xmlns="http://www.w3.org/2000/svg">
  <circle cx="60" cy="60" r="58" fill="#6534FF" stroke="#4B2FC2" stroke-width="4"/>
  <path d="M60 20C37.91 20 20 37.91 20 60C20 82.09 37.91 100 60 100C82.09 100 100 82.09 100 60C100 37.91 82.09 20 60 20ZM60 90C43.43 90 30 76.57 30 60C30 43.43 43.43 30 60 30C76.57 30 90 43.43 90 60C90 76.57 76.57 90 60 90Z" fill="white" opacity="0.9"/>
  <circle cx="60" cy="60" r="25" fill="white"/>
  <path d="M60 45L65 55L75 55L67.5 62L70 72L60 65L50 72L52.5 62L45 55L55 55L60 45Z" fill="#6534FF"/>
</svg>