<svg width="46" height="51" viewBox="0 0 46 51" fill="none" xmlns="http://www.w3.org/2000/svg">
<path d="M1.70874 15.5015V35.4985C1.70874 36.7711 2.38574 37.9494 3.48994 38.5863L20.7818 48.5794C21.886 49.2163 23.24 49.2163 24.3442 48.5794L41.6361 38.5863C42.7403 37.9494 43.4173 36.7711 43.4173 35.4985V15.5015C43.4173 14.2289 42.7403 13.0506 41.6361 12.4137L24.3442 2.42063C23.24 1.78375 21.886 1.78375 20.7818 2.42063L3.48994 12.4137C2.3966 13.0506 1.70874 14.2289 1.70874 15.5015Z" fill="#213147"/>
<path d="M26.3439 29.3751L23.8749 36.1451C23.8025 36.3324 23.8025 36.5415 23.8749 36.7288L28.1143 48.3812L33.021 45.5436L27.1356 29.3751C27.0004 28.9992 26.4791 28.9992 26.3439 29.3751Z" fill="#12AAFF"/>
<path d="M31.2808 17.9837C31.1457 17.6079 30.6243 17.6079 30.4892 17.9837L28.0201 24.7537C27.9477 24.9411 27.9477 25.1501 28.0201 25.3375L34.9675 44.4173L39.8743 41.5797L31.2808 17.9837Z" fill="#12AAFF"/>
<path d="M22.5631 3.16023C22.6886 3.16023 22.8032 3.19165 22.9167 3.2545L41.6253 14.0718C41.8437 14.1975 41.9789 14.4259 41.9789 14.6773V36.3119C41.9789 36.562 41.8437 36.7916 41.6253 36.9173L22.9167 47.7455C22.8129 47.8083 22.6874 47.8398 22.5631 47.8398C22.4388 47.8398 22.3229 47.8083 22.2095 47.7455L3.51051 36.9282C3.29208 36.8025 3.15692 36.5741 3.15692 36.3227V14.6773C3.15692 14.4271 3.29208 14.1975 3.51051 14.0718L22.2191 3.2545C22.3229 3.19165 22.4484 3.16023 22.5631 3.16023ZM22.5631 0C21.8969 0 21.2296 0.17765 20.6358 0.522073L1.92722 11.3394C0.739753 12.027 0 13.3008 0 14.6773V36.3119C0 37.6883 0.739753 38.9718 1.92722 39.6606L20.6358 50.4779C21.2296 50.8223 21.8957 51 22.5631 51C23.2304 51 23.8966 50.8223 24.4903 50.4779L43.1989 39.6606C44.3972 38.9718 45.1261 37.6992 45.1261 36.3119V14.6773C45.1261 13.3008 44.3864 12.0173 43.1989 11.3285L24.4999 0.522073C23.8953 0.17765 23.2292 0 22.5619 0H22.5631Z" fill="#9DCCED"/>
<path d="M10.1985 44.439L11.9169 39.7235L15.3756 42.6021L12.1462 45.5654L10.1985 44.439Z" fill="#213147"/>
<path d="M20.9895 13.1328H16.2505C15.8969 13.1328 15.5735 13.3515 15.4588 13.6851L5.29175 41.6003L10.1985 44.4378L21.3962 13.696C21.4903 13.4252 21.2924 13.1328 20.9895 13.1328Z" fill="white"/>
<path d="M29.2921 13.1328H24.5531C24.1995 13.1328 23.8761 13.3515 23.7615 13.6851L12.1475 45.5642L17.0542 48.4017L29.6879 13.7068C29.7917 13.4252 29.5841 13.1328 29.2921 13.1328Z" fill="white"/>
</svg>
