<svg width="145" height="15" viewBox="0 0 145 15" fill="none" xmlns="http://www.w3.org/2000/svg">
<path d="M9.37144 0.943359C9.83967 0.943359 10.2464 1.03762 10.5698 1.23582C10.8932 1.43401 11.2154 1.80986 11.5279 2.37302L17.7151 13.6181C17.7778 13.7438 17.7875 13.8477 17.7573 13.9311C17.7259 14.0145 17.6318 14.0568 17.487 14.0568H15.1121C14.9033 14.0568 14.7585 13.9734 14.6849 13.8163L13.3622 11.4066H4.58055L3.2893 13.8163C3.20603 13.9831 3.06001 14.0568 2.8621 14.0568H0.435277C0.268742 14.0568 0.174612 14.0145 0.143236 13.9311C0.11186 13.8477 0.122721 13.7438 0.185474 13.6181L6.32072 2.37302C6.63328 1.80986 6.93497 1.43401 7.23787 1.23582C7.53956 1.03762 7.88349 0.943359 8.27931 0.943359H9.37265H9.37144ZM5.73543 9.21556H12.1724L9.2037 3.72896C9.15181 3.64557 9.08906 3.5936 8.99493 3.5936H8.88029C8.79702 3.5936 8.72461 3.6359 8.67152 3.72896L5.73423 9.21556H5.73543Z" fill="white"/>
<path d="M31.3095 0.943359C32.7468 0.943359 33.7677 1.26724 34.3928 1.91379C35.0179 2.56034 35.3305 3.51989 35.3305 4.79244V5.85592C35.3305 6.93028 35.112 7.77502 34.674 8.40103C34.2359 9.02703 33.5276 9.42342 32.538 9.60107L35.736 13.565C35.7987 13.6278 35.8192 13.7209 35.7878 13.8465C35.7673 13.9722 35.6623 14.0339 35.4861 14.0339H33.0798C32.9133 14.0339 32.8095 14.0133 32.7468 13.9819C32.684 13.9396 32.6213 13.878 32.5597 13.7946L29.6019 9.90319H23.5608V13.6278C23.5608 13.8985 23.4256 14.0351 23.1541 14.0351H21.1328C20.8407 14.0351 20.7056 13.8997 20.7056 13.6278V1.50652C20.7056 1.13068 20.8926 0.943359 21.2679 0.943359H31.3095ZM23.5705 7.63H30.7266C31.3626 7.63 31.8103 7.49465 32.071 7.22274C32.3316 6.95203 32.4668 6.53389 32.4668 5.97073V5.18883C32.4668 4.62567 32.3316 4.20873 32.071 3.93682C31.8103 3.66612 31.3626 3.52955 30.7266 3.52955H23.8094C23.6429 3.52955 23.5692 3.60206 23.5692 3.75917V7.62879L23.5705 7.63Z" fill="white"/>
<path d="M50.9654 0.943359C52.247 0.943359 53.1629 1.2044 53.7048 1.71559C54.2466 2.22679 54.5169 2.99902 54.5169 4.03108V4.92779C54.5169 5.97073 54.1211 6.7635 53.3186 7.30612C54.173 7.80644 54.6098 8.6101 54.6098 9.71588V10.8011C54.6098 11.3014 54.5579 11.7498 54.4433 12.1474C54.3287 12.5438 54.1513 12.8882 53.8918 13.1698C53.6311 13.4514 53.2981 13.6701 52.8709 13.8163C52.4437 13.9626 51.9236 14.0459 51.2984 14.0459H40.1937C39.8184 14.0459 39.6313 13.8586 39.6313 13.4828V1.50773C39.6313 1.13189 39.8184 0.944567 40.1937 0.944567H50.9642L50.9654 0.943359ZM42.4962 6.38887H50.1629C50.788 6.38887 51.2043 6.29461 51.4336 6.10729C51.6629 5.91997 51.7667 5.64806 51.7667 5.28309V4.64621C51.7667 4.2607 51.6629 3.97912 51.4433 3.79059C51.2248 3.61294 50.87 3.51989 50.391 3.51989H42.7448C42.5783 3.51989 42.5047 3.60327 42.5047 3.76038V6.38887H42.4938H42.4962ZM42.4962 8.43366V11.2193C42.4962 11.386 42.5795 11.4597 42.7364 11.4597H50.403C50.9026 11.4597 51.2574 11.3655 51.465 11.189C51.6725 11.0126 51.7884 10.7201 51.7884 10.3238V9.61436C51.7884 9.22885 51.6738 8.93639 51.4445 8.7382C51.2152 8.54 50.788 8.43607 50.1629 8.43607H42.4962V8.43366Z" fill="white"/>
<path d="M61.5801 0.943359C61.8505 0.943359 61.9868 1.07871 61.9868 1.35062V13.629C61.9868 13.8997 61.8517 14.0363 61.5801 14.0363H59.5588C59.2667 14.0363 59.1316 13.9009 59.1316 13.629V1.3615C59.1316 1.0908 59.2776 0.954235 59.5588 0.954235L61.5801 0.943359Z" fill="white"/>
<path d="M81.1636 0.943359C81.4557 0.943359 81.5908 1.07871 81.5908 1.35062V3.18634C81.5908 3.4788 81.4448 3.61415 81.1636 3.61415H75.2987V13.629C75.2987 13.8997 75.1636 14.0363 74.892 14.0363H72.8502C72.5799 14.0363 72.4435 13.9009 72.4435 13.629V3.61415H66.5786C66.2865 3.61415 66.1514 3.46792 66.1514 3.18634V1.35062C66.1514 1.07992 66.2974 0.943359 66.5786 0.943359H81.1624H81.1636Z" fill="white"/>
<path d="M95.9443 0.943359C97.3815 0.943359 98.4025 1.26724 99.0276 1.91379C99.6527 2.56034 99.9652 3.51989 99.9652 4.79244V5.85592C99.9652 6.93028 99.7468 7.77502 99.3088 8.40103C98.8707 9.02703 98.1623 9.42342 97.1728 9.60107L100.371 13.565C100.433 13.6278 100.454 13.7209 100.423 13.8465C100.402 13.9722 100.297 14.0339 100.121 14.0339H97.7146C97.5481 14.0339 97.4443 14.0133 97.3815 13.9819C97.3188 13.9396 97.256 13.878 97.1945 13.7946L94.2367 9.90319H88.1956V13.6278C88.1956 13.8985 88.0604 14.0351 87.7889 14.0351H85.7675C85.4755 14.0351 85.3403 13.8997 85.3403 13.6278V1.50652C85.3403 1.13068 85.5274 0.943359 85.9027 0.943359H95.9443ZM88.2149 7.63H95.371C96.007 7.63 96.4547 7.49465 96.7154 7.22274C96.9761 6.95203 97.1112 6.53389 97.1112 5.97073V5.18883C97.1112 4.62567 96.9761 4.20873 96.7154 3.93682C96.4547 3.66612 96.007 3.52955 95.371 3.52955H88.4538C88.2873 3.52955 88.2137 3.60206 88.2137 3.75917V7.62879L88.2149 7.63Z" fill="white"/>
<path d="M106.455 0.943359C106.726 0.943359 106.862 1.07871 106.862 1.35062V8.81917C106.862 9.31949 106.904 9.73763 106.988 10.0603C107.071 10.3938 107.206 10.6549 107.394 10.8422C107.581 11.0404 107.832 11.1757 108.155 11.2495C108.478 11.3329 108.874 11.3752 109.362 11.3752H114.54C115.03 11.3752 115.425 11.3329 115.748 11.2495C116.071 11.1661 116.321 11.0307 116.508 10.8422C116.695 10.644 116.831 10.383 116.904 10.0603C116.976 9.72675 117.018 9.31949 117.018 8.81917V1.35062C117.018 1.07992 117.153 0.943359 117.425 0.943359H119.467C119.737 0.943359 119.873 1.07871 119.873 1.35062V9.10075C119.873 9.99746 119.779 10.7588 119.592 11.3957C119.405 12.0217 119.102 12.5329 118.686 12.9293C118.27 13.3257 117.728 13.6073 117.061 13.7849C116.394 13.9626 115.592 14.0459 114.643 14.0459H109.258C108.31 14.0459 107.508 13.9626 106.851 13.7849C106.195 13.6073 105.653 13.3257 105.237 12.9293C104.82 12.5329 104.517 12.0217 104.319 11.3957C104.121 10.7697 104.027 9.99746 104.027 9.10075V1.35062C104.027 1.07992 104.173 0.943359 104.455 0.943359H106.454H106.455Z" fill="white"/>
<path d="M127.903 0.943359C128.174 0.943359 128.414 0.963903 128.612 0.995324C128.81 1.03762 128.987 1.09926 129.133 1.21406C129.279 1.318 129.414 1.46422 129.54 1.64187C129.654 1.81952 129.78 2.05881 129.904 2.36214L133.79 11.3437C133.842 11.4585 133.925 11.5105 134.051 11.5105H134.28C134.405 11.5105 134.489 11.4585 134.54 11.3437L138.426 2.36214C138.552 2.06002 138.676 1.81952 138.791 1.64187C138.905 1.46422 139.041 1.318 139.197 1.21406C139.343 1.11013 139.521 1.03641 139.708 0.995324C139.906 0.953027 140.135 0.943359 140.405 0.943359H142.405C143.051 0.943359 143.489 1.08959 143.718 1.38205C143.947 1.6745 144.051 2.17482 144.051 2.88421V13.629C144.051 13.8997 143.905 14.0363 143.624 14.0363H141.717C141.447 14.0363 141.31 13.9009 141.31 13.629V3.85464C141.31 3.72896 141.259 3.66732 141.164 3.66732H140.998C140.872 3.66732 140.789 3.71929 140.758 3.81355L136.987 12.2006C136.841 12.5341 136.685 12.8266 136.528 13.0562C136.372 13.2858 136.205 13.4731 136.028 13.6302C135.851 13.7764 135.643 13.8913 135.414 13.9541C135.185 14.0169 134.915 14.0484 134.602 14.0484H133.707C133.394 14.0484 133.124 14.0169 132.894 13.9541C132.665 13.8913 132.456 13.7873 132.28 13.6302C132.103 13.484 131.927 13.2858 131.781 13.0562C131.625 12.8266 131.468 12.545 131.322 12.2006L127.551 3.81355C127.509 3.70962 127.436 3.66732 127.311 3.66732H127.144C127.04 3.66732 126.998 3.73016 126.998 3.85464V13.629C126.998 13.8997 126.863 14.0363 126.591 14.0363H124.685C124.393 14.0363 124.258 13.9009 124.258 13.629V2.88421C124.258 2.17482 124.372 1.6745 124.591 1.38205C124.82 1.08959 125.257 0.943359 125.913 0.943359H127.903Z" fill="white"/>
</svg>
